<svg width="19" height="20" viewBox="0 0 19 20" fill="none" xmlns="http://www.w3.org/2000/svg">
<path d="M9.04017 0C4.06808 0 0 4.50803 0 10.0603C0 15.0803 3.3087 19.247 7.6299 20V12.9719H5.3337V10.0603H7.6299V7.84136C7.6299 5.32128 8.97689 3.93574 11.0471 3.93574C12.0325 3.93574 13.063 4.1265 13.063 4.1265V6.60642H11.924C10.803 6.60642 10.4504 7.37951 10.4504 8.1727V10.0603H12.9636L12.5568 12.9719H10.4504V20C12.5807 19.6263 14.5205 18.4192 15.9196 16.5964C17.3188 14.7737 18.0852 12.4554 18.0803 10.0603C18.0803 4.50803 14.0123 0 9.04017 0Z" fill="#888888"/>
</svg>
