<svg width="18" height="19" viewBox="0 0 18 19" fill="none" xmlns="http://www.w3.org/2000/svg">
<path fill-rule="evenodd" clip-rule="evenodd" d="M8.58817 0C13.3314 0 17.1763 4.36043 17.1763 9.74027C17.1763 14.0428 14.7184 17.6927 11.308 18.9819C10.8726 19.0778 10.718 18.7737 10.718 18.5143C10.718 18.1932 10.7283 17.1444 10.7283 15.841C10.7283 14.9328 10.4535 14.3401 10.1452 14.038C12.0578 13.7967 14.0674 12.973 14.0674 9.23187C14.0674 8.16788 13.7342 7.29962 13.1828 6.61752C13.2722 6.37147 13.5667 5.38075 13.0987 4.03935C13.0987 4.03935 12.379 3.77836 10.7395 5.03806C10.0533 4.82241 9.31816 4.7139 8.58817 4.7101C7.85817 4.7139 7.12389 4.82241 6.43855 5.03806C4.79735 3.77836 4.07595 4.03935 4.07595 4.03935C3.60961 5.38075 3.90418 6.37147 3.99264 6.61752C3.44386 7.29962 3.10806 8.16788 3.10806 9.23187C3.10806 12.9635 5.1134 13.7998 7.02083 14.0459C6.77521 14.2891 6.55277 14.7181 6.47548 15.348C5.98595 15.5969 4.74238 16.0276 3.97632 14.539C3.97632 14.539 3.52201 13.6031 2.65976 13.5347C2.65976 13.5347 1.82241 13.5224 2.60136 14.1266C2.60136 14.1266 3.16388 14.4258 3.55464 15.5516C3.55464 15.5516 4.05877 17.2901 6.448 16.7011C6.45229 17.5152 6.46002 18.2825 6.46002 18.5143C6.46002 18.7718 6.302 19.0731 5.87345 18.9828C2.46051 17.6956 0 14.0438 0 9.74027C0 4.36043 3.84578 0 8.58817 0Z" fill="#888888"/>
</svg>
