<svg width="19" height="20" viewBox="0 0 19 20" fill="none" xmlns="http://www.w3.org/2000/svg">
<path fill-rule="evenodd" clip-rule="evenodd" d="M5.30627 0.122729C3.83464 0.196179 2.55911 0.594174 1.52914 1.72868C0.495578 2.86915 0.140251 4.28569 0.0736851 5.89663C0.0323063 6.90211 -0.209655 14.4983 0.491981 16.4903C0.965135 17.8343 1.89703 18.8676 3.12309 19.3927C3.69519 19.6388 4.34827 19.8055 5.30627 19.8541C13.3166 20.2551 16.286 20.0368 17.5381 16.4903C17.7603 15.8591 17.9132 15.1373 17.9555 14.0802C18.3216 5.19669 17.8961 3.27113 16.5001 1.72868C15.3927 0.506824 14.0902 -0.32492 5.30627 0.122729ZM5.38002 18.0675C4.50297 18.0238 4.02713 17.8622 3.70959 17.7262C2.91081 17.3828 2.31082 16.7218 2.00228 15.8434C1.46796 14.3297 1.64518 7.1405 1.69285 5.9772C1.73963 4.83772 1.94832 3.79632 2.67514 2.99235C3.57467 1.99977 4.73685 1.51332 12.65 1.90837C13.6827 1.95998 14.6263 2.19035 15.355 2.99235C16.2545 3.98491 16.7006 5.28038 16.3372 14.0001C16.2977 14.9679 16.151 15.493 16.0278 15.8434C15.2137 18.1511 13.3409 18.4715 5.38002 18.0675ZM12.7373 4.68961C12.7373 5.34669 13.2204 5.88101 13.8168 5.88101C14.4131 5.88101 14.8971 5.34669 14.8971 4.68961C14.8971 4.03253 14.4131 3.49869 13.8168 3.49869C13.2204 3.49869 12.7373 4.03253 12.7373 4.68961ZM4.39594 9.98793C4.39594 12.8029 6.46397 15.0851 9.01505 15.0851C11.5661 15.0851 13.6342 12.8029 13.6342 9.98793C13.6342 7.173 11.5661 4.89224 9.01505 4.89224C6.46397 4.89224 4.39594 7.173 4.39594 9.98793ZM6.0169 9.98793C6.0169 8.1616 7.35901 6.67983 9.01505 6.67983C10.6711 6.67983 12.0132 8.1616 12.0132 9.98793C12.0132 11.8153 10.6711 13.2975 9.01505 13.2975C7.35901 13.2975 6.0169 11.8153 6.0169 9.98793Z" fill="#888888"/>
</svg>
