<svg width="17" height="18" viewBox="0 0 17 18" fill="none" xmlns="http://www.w3.org/2000/svg">
<path fill-rule="evenodd" clip-rule="evenodd" d="M3.69405 18V5.85483H0.206191V17.9999H3.69405V18ZM1.95049 4.19722C3.16639 4.19722 3.9238 3.26384 3.9238 2.09839C3.90081 0.907039 3.16639 0 1.97329 0C0.77999 3.6852e-05 0 0.907076 0 2.09843C0 3.26387 0.756999 4.19726 1.92753 4.19726L1.95049 4.19722ZM5.62444 18C5.62444 18 5.6702 6.99437 5.62444 5.85486H9.11284V7.61617H9.08969C9.54837 6.78737 10.3747 5.56967 12.2563 5.56967C14.5518 5.56967 16.2723 7.30551 16.2723 11.036V18H12.7845V11.5027C12.7845 9.87011 12.2798 8.75608 11.0172 8.75608C10.0538 8.75608 9.47968 9.50712 9.22754 10.2331C9.13529 10.4915 9.11284 10.8545 9.11284 11.2175V18H5.62444Z" fill="#888888"/>
</svg>
